<?xml version="1.0" encoding="UTF-8" standalone="no"?>
<!-- Created with Inkscape (http://www.inkscape.org/) -->

<svg
   xmlns:dc="http://purl.org/dc/elements/1.1/"
   xmlns:cc="http://creativecommons.org/ns#"
   xmlns:rdf="http://www.w3.org/1999/02/22-rdf-syntax-ns#"
   xmlns:svg="http://www.w3.org/2000/svg"
   xmlns="http://www.w3.org/2000/svg"
   xmlns:sodipodi="http://sodipodi.sourceforge.net/DTD/sodipodi-0.dtd"
   xmlns:inkscape="http://www.inkscape.org/namespaces/inkscape"
   id="svg3004"
   version="1.1"
   inkscape:version="0.48.5 r10040"
   width="1052.3625"
   height="744.1"
   xml:space="preserve"
   sodipodi:docname="ymon_logo_rgb_tasavari.pdf"><metadata
     id="metadata3010"><rdf:RDF><cc:Work
         rdf:about=""><dc:format>image/svg+xml</dc:format><dc:type
           rdf:resource="http://purl.org/dc/dcmitype/StillImage" /><dc:title></dc:title></cc:Work></rdf:RDF></metadata><defs
     id="defs3008"><clipPath
       clipPathUnits="userSpaceOnUse"
       id="clipPath3018"><path
         d="m 0,595.28 841.89,0 L 841.89,0 0,0 0,595.28 z"
         id="path3020" /></clipPath></defs><sodipodi:namedview
     pagecolor="#ffffff"
     bordercolor="#666666"
     borderopacity="1"
     objecttolerance="10"
     gridtolerance="10"
     guidetolerance="10"
     inkscape:pageopacity="0"
     inkscape:pageshadow="2"
     inkscape:window-width="964"
     inkscape:window-height="796"
     id="namedview3006"
     showgrid="false"
     inkscape:zoom="0.70710678"
     inkscape:cx="508.09298"
     inkscape:cy="361.60537"
     inkscape:window-x="3634"
     inkscape:window-y="167"
     inkscape:window-maximized="0"
     inkscape:current-layer="g3012" /><g
     id="g3012"
     inkscape:groupmode="layer"
     inkscape:label="ymon_logo_rgb_tasavari"
     transform="matrix(1.25,0,0,-1.25,0,744.1)"><g
       id="g3014"><g
         id="g3016"
         clip-path="url(#clipPath3018)"><g
           id="g3022"
           transform="translate(632.749,233.5088)"><path
             d="m 0,0 c -35.981,-15.771 -78.996,-25.667 -126.597,-28.252 -84.109,-4.575 -160.06,11.664 -211.002,44.956 -10.259,6.709 -20.368,14.823 -27.941,24.011 -7.938,9.639 -14.929,20.983 -17.234,34.938 -2.698,16.295 1.848,30.966 8.617,42.538 6.143,10.492 15.168,19.652 24.672,27.344 29.245,23.677 66.386,36.444 109.064,46.185 -38.746,-2.514 -74.745,-10.864 -106.392,-21.568 -31.186,-10.558 -61.048,-25.954 -81.727,-47.099 -10.772,-11.014 -20.38,-23.656 -24.37,-40.409 -5.035,-21.129 2.143,-39.939 9.806,-52.26 16.174,-25.998 43.607,-43.347 72.812,-56.209 14.709,-6.482 30.423,-12.33 47.255,-17.012 49.319,-13.722 112.945,-19.679 174.147,-13.067 37.909,4.095 73.462,11.848 104.316,23.999 30.968,12.193 58.848,27.231 78.46,50.443 0.16,0 0.333,0.238 0,0.3 C 23.979,11.546 12.217,5.359 0,0"
             style="fill:#d26414;fill-opacity:1;fill-rule:evenodd;stroke:none"
             id="path3024" /></g><g
           id="g3026"
           transform="translate(367.4063,273.8076)"><path
             d="m 0,0 c -1.549,-4.258 -4.789,-7.798 -9.731,-10.638 -4.943,-2.845 -10.461,-4.258 -16.547,-4.258 l 0,10.638 c 4.964,0 9.215,1.162 12.763,3.484 3.544,2.3 5.315,5.131 5.315,8.473 0,3.667 -0.645,7.287 -1.937,10.851 -1.294,3.567 -2.964,7.975 -5.009,13.229 l -18.141,46.609 12.135,0 19.707,-51.799 17.706,51.799 12.14,0 L 0,0 z"
             style="fill:#575756;fill-opacity:1;fill-rule:nonzero;stroke:none"
             id="path3028" /></g><g
           id="g3030"
           transform="translate(481.0947,285.1973)"><path
             d="m 0,0 0,42.41 c 0,10.555 -4.572,15.832 -13.696,15.832 -2.878,0 -5.572,-0.888 -8.073,-2.662 -2.503,-1.771 -4.214,-3.783 -5.136,-6.038 l 0,-49.542 -11.881,0 0,47.604 c 0,3.295 -1.238,5.892 -3.723,7.789 -2.483,1.898 -5.765,2.849 -9.855,2.849 -2.373,0 -4.907,-0.921 -7.597,-2.756 -2.687,-1.837 -4.602,-3.857 -5.725,-6.069 l 0,-49.417 -11.886,0 0,66.998 7.754,0 3.945,-7.76 c 4.582,6.004 10.321,9.009 17.207,9.009 9.587,0 16.302,-2.979 20.145,-8.944 1.328,2.546 3.813,4.672 7.436,6.379 3.632,1.708 7.365,2.565 11.2,2.565 6.927,0 12.283,-2.055 16.081,-6.16 3.797,-4.111 5.693,-9.877 5.693,-17.299 L 11.889,0 0,0 z"
             style="fill:#575756;fill-opacity:1;fill-rule:nonzero;stroke:none"
             id="path3032" /></g><g
           id="g3034"
           transform="translate(515.127,318.8472)"><path
             d="m 0,0 c 0,-16.806 5.945,-25.208 17.827,-25.208 5.543,0 9.889,2.247 13.048,6.757 3.148,4.502 4.729,10.653 4.729,18.451 0,16.602 -5.929,24.905 -17.777,24.905 -5.421,0 -9.745,-2.212 -12.982,-6.636 C 1.611,13.849 0,7.756 0,0 m -12.52,0 c 0,10.344 2.79,18.699 8.356,25.058 5.568,6.362 12.907,9.539 21.991,9.539 9.594,0 17.046,-3.052 22.34,-9.164 C 45.46,19.322 48.111,10.846 48.111,0 c 0,-10.798 -2.713,-19.319 -8.138,-25.554 -5.418,-6.231 -12.813,-9.358 -22.146,-9.358 -9.545,0 -16.993,3.148 -22.331,9.451 -5.34,6.3 -8.016,14.786 -8.016,25.461"
             style="fill:#575756;fill-opacity:1;fill-rule:nonzero;stroke:none"
             id="path3036" /></g><g
           id="g3038"
           transform="translate(614.3555,285.1973)"><path
             d="m 0,0 0,38.968 c 0,7.134 -1.08,12.128 -3.219,14.985 -2.15,2.856 -5.737,4.289 -10.792,4.289 -2.698,0 -5.555,-0.817 -8.509,-2.44 -2.959,-1.629 -5.232,-3.63 -6.822,-6.006 l 0,-49.796 -11.884,0 0,66.998 8.138,0 3.746,-8.635 c 3.922,6.59 10.331,9.884 19.206,9.884 14.68,0 22.027,-8.924 22.027,-26.777 L 11.891,0 0,0 z"
             style="fill:#575756;fill-opacity:1;fill-rule:nonzero;stroke:none"
             id="path3040" /></g></g></g></g></svg>